Normalized EMG Linear Envelopes
nRows=145
nColumns=4

endheader
time	 med_gas_r	  soleus_r	 tib_ant_r	
2.68733	  0.067921	  0.098137	  0.033233	
2.74982	  0.069153	  0.100142	  0.032586	
2.81232	  0.070222	  0.100313	  0.031553	
2.87482	  0.069396	  0.098757	  0.030535	
2.93731	  0.067551	  0.095940	  0.029970	
2.99981	  0.064974	  0.092902	  0.029987	
3.0623	  0.063462	  0.089730	  0.029802	
3.1248	  0.062686	  0.088137	  0.029376	
3.1873	  0.062805	  0.087978	  0.029372	
3.24979	  0.064174	  0.088827	  0.030187	
3.31229	  0.065435	  0.090693	  0.031611	
3.37478	  0.067527	  0.093168	  0.032958	
3.43728	  0.068970	  0.094804	  0.033749	
3.49978	  0.069930	  0.095935	  0.034556	
3.56227	  0.069557	  0.096346	  0.034930	
3.62477	  0.067317	  0.095251	  0.033554	
3.68726	  0.065100	  0.093019	  0.031037	
3.74976	  0.063529	  0.090455	  0.028892	
3.81226	  0.063392	  0.087333	  0.027884	
3.87475	  0.063362	  0.084799	  0.027951	
3.93725	  0.064955	  0.084927	  0.028926	
3.99974	  0.067449	  0.090056	  0.030436	
4.06224	  0.067598	  0.097708	  0.031529	
4.12474	  0.067073	  0.103775	  0.031773	
4.18723	  0.066894	  0.105727	  0.031763	
4.24973	  0.066589	  0.106037	  0.031726	
4.31222	  0.065193	  0.106591	  0.031495	
4.37472	  0.063605	  0.104600	  0.031081	
4.43722	  0.062699	  0.099548	  0.030414	
4.49971	  0.062436	  0.094635	  0.029865	
4.56221	  0.063052	  0.091962	  0.029783	
4.6247	  0.063396	  0.091281	  0.029947	
4.6872	  0.063192	  0.091509	  0.030315	
4.7497	  0.062080	  0.092000	  0.030636	
4.81219	  0.058802	  0.090947	  0.030821	
4.87469	  0.053799	  0.087672	  0.030727	
4.93718	  0.048476	  0.083091	  0.030277	
4.99968	  0.048820	  0.081169	  0.030036	
5.06218	  0.063377	  0.087122	  0.030001	
5.12467	  0.107156	  0.109011	  0.030736	
5.18717	  0.196798	  0.159479	  0.035101	
5.24966	  0.334281	  0.243672	  0.046479	
5.31216	  0.483395	  0.346046	  0.064555	
5.37466	  0.585654	  0.433937	  0.083443	
5.43715	  0.632475	  0.486681	  0.098510	
5.49965	  0.647585	  0.511068	  0.108200	
5.56214	  0.633868	  0.513653	  0.113170	
5.62464	  0.610661	  0.511740	  0.116083	
5.68714	  0.585352	  0.526390	  0.117804	
5.74963	  0.565158	  0.541470	  0.118541	
5.81213	  0.580507	  0.531879	  0.119569	
5.87462	  0.624334	  0.519280	  0.121946	
5.93712	  0.651524	  0.501825	  0.124055	
5.99962	  0.654979	  0.490392	  0.124791	
6.06211	  0.625466	  0.497085	  0.122893	
6.12461	  0.581937	  0.485317	  0.116907	
6.1871	  0.556896	  0.468283	  0.110471	
6.2496	  0.557664	  0.459003	  0.107406	
6.3121	  0.588965	  0.457402	  0.108472	
6.37459	  0.610052	  0.469085	  0.109792	
6.43709	  0.614754	  0.474354	  0.108063	
6.49958	  0.604792	  0.467024	  0.104467	
6.56208	  0.590144	  0.460367	  0.102025	
6.62458	  0.574068	  0.459373	  0.099903	
6.68707	  0.555224	  0.473523	  0.097602	
6.74957	  0.539637	  0.494180	  0.098061	
6.81206	  0.541184	  0.512806	  0.101389	
6.87456	  0.555785	  0.519356	  0.103195	
6.93706	  0.587013	  0.517286	  0.101827	
6.99955	  0.626894	  0.523580	  0.100767	
7.06205	  0.655523	  0.533392	  0.099312	
7.12454	  0.657970	  0.547126	  0.099938	
7.18704	  0.632647	  0.551639	  0.102294	
7.24954	  0.591608	  0.548901	  0.103448	
7.31203	  0.550592	  0.539170	  0.102740	
7.37453	  0.536989	  0.526996	  0.101265	
7.43702	  0.549708	  0.528087	  0.098793	
7.49952	  0.569340	  0.534254	  0.095853	
7.56202	  0.588298	  0.546627	  0.094395	
7.62451	  0.587354	  0.565069	  0.095435	
7.68701	  0.569958	  0.571932	  0.099094	
7.7495	  0.549250	  0.558355	  0.104162	
7.812	  0.536685	  0.530669	  0.109104	
7.8745	  0.541726	  0.501054	  0.112872	
7.93699	  0.564024	  0.485131	  0.112280	
7.99949	  0.589440	  0.482652	  0.106036	
8.06198	  0.601948	  0.480425	  0.097659	
8.12448	  0.617230	  0.476527	  0.092476	
8.18698	  0.624829	  0.480544	  0.092205	
8.24947	  0.625890	  0.496045	  0.096303	
8.31197	  0.621348	  0.521948	  0.101973	
8.37446	  0.606361	  0.553018	  0.103766	
8.43696	  0.600182	  0.581075	  0.102558	
8.49946	  0.601732	  0.596238	  0.101076	
8.56195	  0.617398	  0.590776	  0.099832	
8.62445	  0.638526	  0.579661	  0.098573	
8.68694	  0.645923	  0.576067	  0.096115	
8.74944	  0.639205	  0.580838	  0.093128	
8.81194	  0.625716	  0.583351	  0.091115	
8.87443	  0.599684	  0.582255	  0.091134	
8.93693	  0.574823	  0.574734	  0.092344	
8.99942	  0.554802	  0.582124	  0.094327	
9.06192	  0.536167	  0.624339	  0.095725	
9.12442	  0.519135	  0.692672	  0.096649	
9.18691	  0.512548	  0.755931	  0.095154	
9.24941	  0.524013	  0.787576	  0.092199	
9.3119	  0.548724	  0.791258	  0.089821	
9.3744	  0.575740	  0.775398	  0.088853	
9.4369	  0.594537	  0.734660	  0.089927	
9.49939	  0.598357	  0.677115	  0.091177	
9.56189	  0.585461	  0.624879	  0.092423	
9.62438	  0.568882	  0.595982	  0.091994	
9.68688	  0.546201	  0.597176	  0.089150	
9.74938	  0.520584	  0.626195	  0.085395	
9.81187	  0.513124	  0.663188	  0.083866	
9.87437	  0.527117	  0.695737	  0.085034	
9.93686	  0.557352	  0.709219	  0.088387	
9.99936	  0.586318	  0.703977	  0.091851	
10.0619	  0.602157	  0.691048	  0.092493	
10.1244	  0.593313	  0.683987	  0.091906	
10.1868	  0.559670	  0.676006	  0.090925	
10.2493	  0.527682	  0.656647	  0.089573	
10.3118	  0.514678	  0.630079	  0.087184	
10.3743	  0.516956	  0.603228	  0.083466	
10.4368	  0.531504	  0.577211	  0.080298	
10.4993	  0.531868	  0.561739	  0.078011	
10.5618	  0.496366	  0.551590	  0.076548	
10.6243	  0.459586	  0.523269	  0.073281	
10.6868	  0.435330	  0.464909	  0.068813	
10.7493	  0.425038	  0.394509	  0.064970	
10.8118	  0.428110	  0.338969	  0.062866	
10.8743	  0.426096	  0.299034	  0.061244	
10.9368	  0.408397	  0.267508	  0.059652	
10.9993	  0.389901	  0.234925	  0.059302	
11.0618	  0.365888	  0.202581	  0.059846	
11.1243	  0.337329	  0.174796	  0.060567	
11.1868	  0.304322	  0.146634	  0.061885	
11.2493	  0.279885	  0.123618	  0.063679	
11.3118	  0.266376	  0.110098	  0.063001	
11.3743	  0.250069	  0.103465	  0.060776	
11.4368	  0.236503	  0.099939	  0.056706	
11.4993	  0.232100	  0.098314	  0.051961	
11.5618	  0.227876	  0.099089	  0.049784	
11.6243	  0.216326	  0.101371	  0.048857	
11.6868	  0.201706	  0.103043	  0.047537	
